<?xml version="1.0" encoding="iso-8859-1"?>
<!-- Generator: Adobe Illustrator 19.0.0, SVG Export Plug-In . SVG Version: 6.00 Build 0)  -->
<svg version="1.1" id="Capa_1" xmlns="http://www.w3.org/2000/svg" xmlns:xlink="http://www.w3.org/1999/xlink" x="0px" y="0px"
	 viewBox="0 0 512 512" style="enable-background:new 0 0 512 512;" xml:space="preserve">
<g>
	<g>
		<path d="M263.07,399.13c-1.86-1.86-4.44-2.92-7.07-2.92s-5.21,1.06-7.07,2.92c-1.86,1.87-2.93,4.439-2.93,7.08
			c0,2.63,1.07,5.2,2.93,7.07c1.86,1.859,4.44,2.93,7.07,2.93s5.21-1.07,7.07-2.93s2.93-4.44,2.93-7.07
			C266,403.569,264.93,401,263.07,399.13z"/>
	</g>
</g>
<g>
	<g>
		<path d="M451.692,253.58C450.399,147.576,364.423,61.6,258.419,60.307c-0.776-0.193-4.063-0.193-4.839,0
			C147.577,61.6,61.601,147.576,60.308,253.579C60.114,254.355,60,255.163,60,256c0,0.837,0.114,1.645,0.308,2.421
			C61.611,365.23,148.887,451.724,256,451.724s194.389-86.493,195.692-193.302c0.194-0.777,0.308-1.585,0.308-2.421
			S451.886,254.356,451.692,253.58z M386.807,138.797c-8.011,4.411-16.623,7.496-25.584,9.192
			c-3.128-17.048-10.311-32.692-20.508-45.899C358.079,111.685,373.654,124.132,386.807,138.797z M266,149.521V80.939
			c37.342,4.294,67.564,32.327,75.143,68.583L266,149.521L266,149.521z M266,169.521h76.982V246H266V169.521z M266,266h76.982
			v76.479H266V266z M246,80.939v68.583h-75.143C178.436,113.266,208.658,85.233,246,80.939z M169.018,246v-76.479H246V246H169.018z
			 M246,266v76.479h-76.982V266H246z M171.285,102.09c-10.197,13.207-17.38,28.852-20.508,45.899
			c-8.961-1.695-17.573-4.781-25.584-9.192C138.346,124.132,153.921,111.685,171.285,102.09z M112.563,154.599
			c11.276,6.694,23.588,11.202,36.456,13.385V246h-68.45C82.48,212.089,94.045,180.717,112.563,154.599z M112.563,357.401
			C94.045,331.283,82.48,299.911,80.568,266h68.45v78.015C136.15,346.199,123.839,350.707,112.563,357.401z M125.193,373.203
			c8.006-4.408,16.613-7.493,25.568-9.189c3.109,17.016,10.258,32.636,20.411,45.833
			C153.853,400.26,138.317,387.836,125.193,373.203z M258.242,431.695c-0.747,0.009-1.493,0.028-2.242,0.028
			c-0.749,0-1.495-0.019-2.242-0.028c-40.89-1.04-74.853-30.438-82.919-69.217H246v8.012c0,5.522,4.477,10,10,10s10-4.478,10-10
			v-8.012h75.161C333.095,401.257,299.132,430.655,258.242,431.695z M340.828,409.847c10.153-13.197,17.302-28.817,20.411-45.833
			c8.955,1.696,17.562,4.78,25.568,9.189C373.683,387.836,358.147,400.26,340.828,409.847z M399.438,357.401
			c-11.276-6.694-23.588-11.202-36.456-13.385V266h68.45C429.52,299.911,417.955,331.283,399.438,357.401z M362.982,246v-78.015
			c12.868-2.184,25.179-6.692,36.456-13.385c18.517,26.117,30.082,57.489,31.994,91.4H362.982z"/>
	</g>
</g>
<g>
	<g>
		<path d="M429.763,46.236c-7.091,0-13.704,2.069-19.283,5.624c-20.777-15.752-43.677-28.174-68.179-36.946
			C314.658,5.018,285.623,0,256,0c-56.291,0-109.698,17.92-154.449,51.822c-4.402,3.335-5.268,9.607-1.932,14.01
			c3.335,4.402,9.608,5.266,14.009,1.932C154.875,36.517,204.106,20,256,20c51.591,0,100.234,16.194,141.204,46.896
			c-2.203,4.657-3.441,9.856-3.441,15.34c0,19.851,16.149,36,36,36s36-16.149,36-36C465.763,62.385,449.614,46.236,429.763,46.236z
			 M429.763,98.236c-8.822,0-16-7.178-16-16c0-8.822,7.178-16,16-16c8.822,0,16,7.178,16,16
			C445.763,91.058,438.585,98.236,429.763,98.236z"/>
	</g>
</g>
<g>
	<g>
		<path d="M86.762,77.145c-3.963-3.838-10.352-3.675-14.195,0.283s-3.82,10.347,0.133,14.197c1.927,1.876,4.432,2.804,6.942,2.804
			c2.637,0,5.278-1.025,7.254-3.048c0.012-0.014,0.025-0.026,0.038-0.039C90.767,87.373,90.725,80.984,86.762,77.145z"/>
	</g>
</g>
<g>
	<g>
		<path d="M496.393,167.804c4.432,1.514,9.458-0.261,11.885-4.472c2.758-4.785,1.114-10.899-3.671-13.657l-29.202-16.829
			c-3.096-1.785-6.908-1.781-10,0.008c-3.093,1.789-4.996,5.092-4.993,8.664l0.027,33.704c0.004,5.521,4.48,9.992,10,9.992
			c0.002,0,0.005,0,0.008,0c3.924-0.003,7.309-2.271,8.944-5.562C487.762,204.086,492,229.663,492,256
			c0,130.131-105.869,236-236,236S20,386.131,20,256c0-49.291,15.037-96.506,43.485-136.541c3.199-4.502,2.143-10.744-2.359-13.943
			c-4.502-3.2-10.746-2.143-13.944,2.359C16.315,151.313,0,202.534,0,256c0,68.38,26.628,132.667,74.981,181.02
			C123.333,485.371,187.62,512,256,512s132.667-26.629,181.019-74.98C485.372,388.667,512,324.38,512,256
			C512,225.499,506.746,195.932,496.393,167.804z"/>
	</g>
</g>
<g>
</g>
<g>
</g>
<g>
</g>
<g>
</g>
<g>
</g>
<g>
</g>
<g>
</g>
<g>
</g>
<g>
</g>
<g>
</g>
<g>
</g>
<g>
</g>
<g>
</g>
<g>
</g>
<g>
</g>
</svg>
